<?xml version="1.0" ?><!DOCTYPE svg  PUBLIC '-//W3C//DTD SVG 1.1//EN'  'http://www.w3.org/Graphics/SVG/1.1/DTD/svg11.dtd'><svg height="100%" style="fill-rule:evenodd;clip-rule:evenodd;stroke-linejoin:round;stroke-miterlimit:2;" version="1.1" viewBox="0 0 32 32" width="100%" xml:space="preserve" xmlns="http://www.w3.org/2000/svg" xmlns:serif="http://www.serif.com/" xmlns:xlink="http://www.w3.org/1999/xlink"><path d="M6,15.971l-1,-0c-1.657,-0 -3,1.343 -3,3c0,1.75 0,4.279 0,6.029c0,1.657 1.343,3 3,3l2,0c0.552,-0 1,-0.448 1,-1l-0,-13.002c0,-2.121 0.843,-4.156 2.343,-5.655c1.499,-1.5 3.534,-2.343 5.655,-2.343l0.004,0c2.121,-0 4.156,0.843 5.655,2.343c1.5,1.499 2.343,3.534 2.343,5.655l-0,12.99l-0,0.012c-0,0.552 0.448,1 1,1c-0,0 1,0 2,0c0.796,0 1.559,-0.316 2.121,-0.879c0.563,-0.562 0.879,-1.325 0.879,-2.121c-0,-1.743 -0,-4.257 -0,-6c0,-0.796 -0.316,-1.559 -0.879,-2.121c-0.562,-0.563 -1.325,-0.879 -2.121,-0.879l-1,0l-0,-2.002c-0,-2.652 -1.053,-5.195 -2.928,-7.07c-1.875,-1.875 -4.418,-2.928 -7.07,-2.928c-0.001,0 -0.003,0 -0.004,0c-2.652,-0 -5.195,1.053 -7.07,2.928c-1.875,1.875 -2.928,4.418 -2.928,7.07l-0,1.973Zm20,10.029l1,0c0.265,0 0.52,-0.105 0.707,-0.293c0.188,-0.187 0.293,-0.442 0.293,-0.707l-0,-6c0,-0.265 -0.105,-0.52 -0.293,-0.707c-0.187,-0.188 -0.442,-0.293 -0.707,-0.293l-1,0l-0,8Zm-20,-8.029l-1,-0c-0.552,-0 -1,0.448 -1,1c-0,1.75 -0,4.279 -0,6.029c0,0.552 0.448,1 1,1l1,0l-0,-8.029Z"/></svg>