<?xml version="1.0" ?><!DOCTYPE svg  PUBLIC '-//W3C//DTD SVG 1.1//EN'  'http://www.w3.org/Graphics/SVG/1.1/DTD/svg11.dtd'><svg height="100%" style="fill-rule:evenodd;clip-rule:evenodd;stroke-linejoin:round;stroke-miterlimit:2;" version="1.1" viewBox="0 0 32 32" width="100%" xml:space="preserve" xmlns="http://www.w3.org/2000/svg" xmlns:serif="http://www.serif.com/" xmlns:xlink="http://www.w3.org/1999/xlink"><path d="M12,6.352l-0.95,-0.949c-1.171,-1.172 -3.071,-1.172 -4.242,-0l-1.415,1.414c-1.171,1.171 -1.171,3.071 0,4.243l0.95,0.949l-1.343,0c-1.657,0 -3,1.343 -3,3l0,2c0,1.657 1.343,3 3,3l1.343,0l-0.95,0.95c-1.171,1.172 -1.171,3.071 0,4.243l1.415,1.414c1.171,1.171 3.071,1.171 4.242,-0l0.95,-0.95l0,1.343c0,1.657 1.343,3 3,3l2,0c1.657,0 3,-1.343 3,-3l0,-1.343l0.95,0.95c1.171,1.171 3.071,1.171 4.242,-0l1.415,-1.414c1.171,-1.172 1.171,-3.071 -0,-4.243l-0.95,-0.95l1.343,0c1.657,0 3,-1.343 3,-3l-0,-2c-0,-1.657 -1.343,-3 -3,-3l-1.343,0l0.95,-0.949c1.171,-1.172 1.171,-3.072 -0,-4.243l-1.415,-1.414c-1.171,-1.172 -3.071,-1.172 -4.242,-0l-0.95,0.949l-0,-1.343c-0,-1.657 -1.343,-3 -3,-3l-2,0c-1.657,0 -3,1.343 -3,3l-0,1.343Zm0.293,3.122c0.286,0.286 0.716,0.371 1.09,0.217c0.373,-0.155 0.617,-0.52 0.617,-0.924l-0,-3.758c0,-0.552 0.448,-1 1,-1c0,0 2,0 2,0c0.552,0 1,0.448 1,1c0,0 0,3.758 0,3.758c0,0.404 0.244,0.769 0.617,0.924c0.374,0.154 0.804,0.069 1.09,-0.217l2.657,-2.657c0.391,-0.391 1.024,-0.391 1.414,-0c0,0 1.414,1.414 1.414,1.414c0.391,0.391 0.391,1.024 0,1.414c0,0 -2.656,2.657 -2.656,2.657c-0.286,0.286 -0.372,0.716 -0.217,1.09c0.155,0.374 0.519,0.617 0.924,0.617l3.757,-0c0.552,-0 1,0.448 1,1c-0,0 -0,2 -0,2c-0,0.553 -0.448,1 -1,1c0,0 -3.757,0 -3.757,0c-0.405,0 -0.769,0.244 -0.924,0.618c-0.155,0.373 -0.069,0.803 0.217,1.089l2.656,2.657c0.391,0.391 0.391,1.024 0,1.414c0,0 -1.414,1.415 -1.414,1.415c-0.39,0.39 -1.023,0.39 -1.414,-0c-0,-0 -2.657,-2.657 -2.657,-2.657c-0.286,-0.286 -0.716,-0.372 -1.09,-0.217c-0.373,0.155 -0.617,0.519 -0.617,0.924l0,3.757c-0,0.553 -0.448,1 -1,1c-0,0 -2,0 -2,0c-0.552,0 -1,-0.447 -1,-1c0,0 -0,-3.757 -0,-3.757c0,-0.405 -0.244,-0.769 -0.617,-0.924c-0.374,-0.155 -0.804,-0.069 -1.09,0.217l-2.657,2.657c-0.391,0.39 -1.024,0.39 -1.414,-0c-0,-0 -1.415,-1.415 -1.415,-1.415c-0.39,-0.39 -0.39,-1.023 -0,-1.414l2.657,-2.657c0.286,-0.286 0.371,-0.716 0.217,-1.089c-0.155,-0.374 -0.52,-0.618 -0.924,-0.618l-3.758,0c-0.552,0 -1,-0.447 -1,-1c0,-0 0,-2 0,-2c0,-0.552 0.448,-1 1,-1l3.758,-0c0.404,-0 0.769,-0.243 0.924,-0.617c0.154,-0.374 0.069,-0.804 -0.217,-1.09l-2.657,-2.657c-0.39,-0.39 -0.39,-1.023 0,-1.414c0,-0 1.415,-1.414 1.415,-1.414c0.39,-0.391 1.023,-0.391 1.414,-0l2.657,2.657Zm3.707,2.526c4.418,0 8,3.582 8,8c-0,4.419 -3.582,8 -8,8c-4.418,0 -8,-3.581 -8,-8c-0,-4.418 3.582,-8 8,-8Zm0,2c-3.314,-0 -6,2.686 -6,6c-0,3.314 2.686,6 6,6c3.314,0 6,-2.686 6,-6c-0,-3.314 -2.686,-6 -6,-6Z"/></svg>