<?xml version="1.0" ?><!DOCTYPE svg  PUBLIC '-//W3C//DTD SVG 1.1//EN'  'http://www.w3.org/Graphics/SVG/1.1/DTD/svg11.dtd'><svg height="100%" style="fill-rule:evenodd;clip-rule:evenodd;stroke-linejoin:round;stroke-miterlimit:2;" version="1.1" viewBox="0 0 32 32" width="100%" xml:space="preserve" xmlns="http://www.w3.org/2000/svg" xmlns:serif="http://www.serif.com/" xmlns:xlink="http://www.w3.org/1999/xlink"><path d="M14.994,5.958l-4.994,0l0,-0.911c-0,-0.552 -0.448,-1 -1,-1c-0.552,-0 -1,0.448 -1,1l0,0.911l-1.008,0c-0.796,0 -1.559,0.316 -2.122,0.879c-0.562,0.562 -0.878,1.325 -0.878,2.121l-0,16.047c-0,0.796 0.316,1.559 0.878,2.121c0.563,0.563 1.326,0.879 2.122,0.879c4.184,0 13.82,0 18.004,0c0.796,0 1.559,-0.316 2.121,-0.879c0.563,-0.562 0.879,-1.325 0.879,-2.121l-0,-16.047c-0,-0.796 -0.316,-1.559 -0.879,-2.121c-0.562,-0.563 -1.325,-0.879 -2.121,-0.879l-0.996,0l0,-0.958c-0,-0.552 -0.448,-1 -1,-1c-0.552,0 -1,0.448 -1,1l0,0.958l-5.006,0l-0,-0.958c-0,-0.552 -0.448,-1 -1,-1c-0.552,0 -1,0.448 -1,1l-0,0.958Zm11.002,8.051l-0,10.996c-0,0.265 -0.105,0.52 -0.293,0.707c-0.188,0.188 -0.442,0.293 -0.707,0.293c-4.184,0 -13.82,0 -18.004,0c-0.265,0 -0.52,-0.105 -0.707,-0.293c-0.188,-0.187 -0.293,-0.442 -0.293,-0.707l-0,-10.996l20.004,0Zm-1.996,-6.051l0,1.038c-0,0.552 -0.448,1 -1,1c-0.552,-0 -1,-0.448 -1,-1l0,-1.038l-5.006,0l-0,1.08c-0,0.552 -0.448,1 -1,1c-0.552,-0 -1,-0.448 -1,-1l-0,-1.08l-4.994,0l0,1.08c-0,0.552 -0.448,1 -1,1c-0.552,-0 -1,-0.448 -1,-1l0,-1.08l-1.008,0c-0.265,0 -0.52,0.105 -0.707,0.293c-0.188,0.187 -0.293,0.442 -0.293,0.707l-0,3.051l20.004,0l-0,-3.051c-0,-0.265 -0.105,-0.52 -0.293,-0.707c-0.188,-0.188 -0.442,-0.293 -0.707,-0.293l-0.996,0Z"/><rect height="2" width="2" x="9" y="16.982"/><rect height="2" width="2" x="9" y="21"/><rect height="2" width="2" x="13" y="16.982"/><rect height="2" width="2" x="13" y="21"/><rect height="2" width="2" x="17" y="16.982"/><rect height="2" width="2" x="17" y="21"/><rect height="2" width="2" x="21" y="16.982"/><rect height="2" width="2" x="21" y="21"/></svg>