<?xml version="1.0" ?><!DOCTYPE svg  PUBLIC '-//W3C//DTD SVG 1.1//EN'  'http://www.w3.org/Graphics/SVG/1.1/DTD/svg11.dtd'><svg height="100%" style="fill-rule:evenodd;clip-rule:evenodd;stroke-linejoin:round;stroke-miterlimit:2;" version="1.1" viewBox="0 0 32 32" width="100%" xml:space="preserve" xmlns="http://www.w3.org/2000/svg" xmlns:serif="http://www.serif.com/" xmlns:xlink="http://www.w3.org/1999/xlink"><path d="M10,2c-2.76,-0 -5,2.24 -5,5c-0,2.76 2.24,5 5,5c2.76,-0 5,-2.24 5,-5c-0,-2.76 -2.24,-5 -5,-5Zm-0,2c1.656,-0 3,1.344 3,3c-0,1.656 -1.344,3 -3,3c-1.656,-0 -3,-1.344 -3,-3c-0,-1.656 1.344,-3 3,-3Z"/><path d="M22,4c-2.76,0 -5,2.24 -5,5c-0,2.76 2.24,5 5,5c2.76,0 5,-2.24 5,-5c-0,-2.76 -2.24,-5 -5,-5Zm0,2c1.656,0 3,1.344 3,3c-0,1.656 -1.344,3 -3,3c-1.656,0 -3,-1.344 -3,-3c-0,-1.656 1.344,-3 3,-3Z"/><path d="M21.173,29.007l0,0c4.126,-1.641 7.29,-5.19 8.401,-9.555c0.099,-0.391 -0.046,-0.803 -0.368,-1.046c-2.007,-1.51 -4.503,-2.406 -7.206,-2.406c-1.516,0 -2.967,0.282 -4.303,0.796c-2.084,-1.745 -4.769,-2.796 -7.697,-2.796c-2.857,-0 -5.482,1 -7.544,2.67c-0.265,0.214 -0.402,0.549 -0.364,0.888c0.779,6.992 6.715,12.436 13.913,12.436c1.825,-0 3.569,-0.35 5.168,-0.987Zm-17.019,-11.119c1.645,-1.188 3.664,-1.888 5.846,-1.888c5.519,-0 10,4.481 10,10c0,0.455 -0.03,0.904 -0.089,1.343c-1.225,0.422 -2.539,0.651 -3.906,0.651c-5.978,-0 -10.941,-4.381 -11.851,-10.106l0,0Zm17.812,8.521c2.585,-1.484 4.567,-3.902 5.482,-6.794c-1.568,-1.021 -3.439,-1.615 -5.448,-1.615c-0.948,0 -1.865,0.132 -2.733,0.379c1.707,2.073 2.733,4.728 2.733,7.621c0,0.146 -0.013,0.281 -0.034,0.409Z"/></svg>