<?xml version="1.0" ?><!DOCTYPE svg  PUBLIC '-//W3C//DTD SVG 1.1//EN'  'http://www.w3.org/Graphics/SVG/1.1/DTD/svg11.dtd'><svg height="100%" style="fill-rule:evenodd;clip-rule:evenodd;stroke-linejoin:round;stroke-miterlimit:2;" version="1.1" viewBox="0 0 32 32" width="100%" xml:space="preserve" xmlns="http://www.w3.org/2000/svg" xmlns:serif="http://www.serif.com/" xmlns:xlink="http://www.w3.org/1999/xlink"><path d="M6,26l0,3c0,0.365 0.199,0.702 0.52,0.877c0.321,0.176 0.711,0.162 1.019,-0.035l6.001,-3.842l13.463,0c0.796,-0 1.559,-0.316 2.122,-0.879c0.562,-0.562 0.878,-1.325 0.878,-2.121c0,-3.463 0,-10.537 0,-14c0,-0.796 -0.316,-1.559 -0.878,-2.121c-0.563,-0.563 -1.326,-0.879 -2.122,-0.879l-22,0c-0.795,0 -1.558,0.316 -2.121,0.879c-0.563,0.562 -0.879,1.325 -0.879,2.121c0,3.463 0,10.537 0,14c0,0.796 0.316,1.559 0.879,2.121c0.563,0.563 1.326,0.879 2.121,0.879l0.997,-0Zm2,-1c0,-0.552 -0.448,-1 -1,-1l-1.997,0c-0.265,-0 -0.519,-0.105 -0.707,-0.293c-0.187,-0.187 -0.293,-0.442 -0.293,-0.707l0,-14c0,-0.265 0.106,-0.52 0.293,-0.707c0.188,-0.188 0.442,-0.293 0.707,-0.293c0,0 22,0 22,0c0.266,0 0.52,0.105 0.708,0.293c0.187,0.187 0.292,0.442 0.292,0.707l0,14c0,0.265 -0.105,0.52 -0.292,0.707c-0.188,0.188 -0.442,0.293 -0.708,0.293c0,0 -13.756,0 -13.756,0c-0.191,0 -0.379,0.055 -0.539,0.158l-4.708,3.014c0,0 0,-2.172 0,-2.172Z"/><path d="M8,13l16.023,0c0.552,0 1,-0.448 1,-1c-0,-0.552 -0.448,-1 -1,-1l-16.023,0c-0.552,0 -1,0.448 -1,1c0,0.552 0.448,1 1,1Z"/><path d="M8,17l16.023,0c0.552,0 1,-0.448 1,-1c-0,-0.552 -0.448,-1 -1,-1l-16.023,0c-0.552,0 -1,0.448 -1,1c0,0.552 0.448,1 1,1Z"/><path d="M8,21l16.023,0c0.552,0 1,-0.448 1,-1c-0,-0.552 -0.448,-1 -1,-1l-16.023,0c-0.552,0 -1,0.448 -1,1c0,0.552 0.448,1 1,1Z"/></svg>